# xmcd CD database file
#
# Track frame offsets:
#	150
#	1512
#	30356
#	52394
#	79416
#	109618
#	139767
#	162414
#	190647
#	221315
#	246013
#	271109
#	302690
#
# Disc length: 4283 seconds
#
# Revision: 3
# Processed by: cddbd v1.4PL0 Copyright (c) Steve Scherf et al.
# Submitted via: CDex 1.40Release
#
DISCID=a010b90d
DTITLE=Dzem - Dzem w operze
DYEAR=1900
DGENRE=
TTITLE0=Strojenie
TTITLE1=Dzikosc mego serca
TTITLE2=To tylko dwa piwa
TTITLE3=Mala aleja roz
TTITLE4=Miliony srebrnych lez
TTITLE5=Tylko ja i Ty
TTITLE6=Dzien w ktorym peklo niebo
TTITLE7=Sen o Victorii
TTITLE8=Wokol sami lunatycy
TTITLE9=Autsajder
TTITLE10=Naiwne pytania
TTITLE11=Wehikul czasu
TTITLE12=Zapal swieczke
EXTD=
EXTT0=
EXTT1=
EXTT2=
EXTT3=
EXTT4=
EXTT5=
EXTT6=
EXTT7=
EXTT8=
EXTT9=
EXTT10=
EXTT11=
EXTT12=
PLAYORDER=
